<svg xmlns="http://www.w3.org/2000/svg" xmlns:xlink="http://www.w3.org/1999/xlink" width="57" zoomAndPan="magnify" viewBox="0 0 42.75 41.25" height="55" preserveAspectRatio="xMidYMid meet" version="1.0"><defs><filter x="0%" y="0%" width="100%" height="100%" id="12d2544c4c"><feColorMatrix values="0 0 0 0 1 0 0 0 0 1 0 0 0 0 1 0 0 0 1 0" color-interpolation-filters="sRGB"/></filter><mask id="a72ecc1111"><g filter="url(#12d2544c4c)"><rect x="-4.275" width="51.3" fill="#000000" y="-4.125" height="49.499999" fill-opacity="0.2"/></g></mask><clipPath id="cf12573533"><path d="M 0.480469 0.613281 L 11.324219 0.613281 L 11.324219 10.984375 L 0.480469 10.984375 Z M 0.480469 0.613281 " clip-rule="nonzero"/></clipPath><clipPath id="c464585371"><rect x="0" width="12" y="0" height="11"/></clipPath><mask id="6fee89202a"><g filter="url(#12d2544c4c)"><rect x="-4.275" width="51.3" fill="#000000" y="-4.125" height="49.499999" fill-opacity="0.2"/></g></mask><clipPath id="f15026aaa4"><path d="M 0.679688 0.5 L 11.523438 0.5 L 11.523438 10.871094 L 0.679688 10.871094 Z M 0.679688 0.5 " clip-rule="nonzero"/></clipPath><clipPath id="05cceba93d"><rect x="0" width="12" y="0" height="11"/></clipPath><mask id="e0fccc2944"><g filter="url(#12d2544c4c)"><rect x="-4.275" width="51.3" fill="#000000" y="-4.125" height="49.499999" fill-opacity="0.498"/></g></mask><clipPath id="76a10d67b7"><path d="M 0.386719 0.542969 L 30.324219 0.542969 L 30.324219 18.691406 L 0.386719 18.691406 Z M 0.386719 0.542969 " clip-rule="nonzero"/></clipPath><clipPath id="055447d5a7"><rect x="0" width="31" y="0" height="19"/></clipPath><mask id="1b297e8200"><g filter="url(#12d2544c4c)"><rect x="-4.275" width="51.3" fill="#000000" y="-4.125" height="49.499999" fill-opacity="0.698"/></g></mask><clipPath id="ea4f64005e"><path d="M 0.386719 0.363281 L 13 0.363281 L 13 10 L 0.386719 10 Z M 0.386719 0.363281 " clip-rule="nonzero"/></clipPath><clipPath id="7324698d3d"><rect x="0" width="14" y="0" height="11"/></clipPath><mask id="f953d8c15c"><g filter="url(#12d2544c4c)"><rect x="-4.275" width="51.3" fill="#000000" y="-4.125" height="49.499999" fill-opacity="0.698"/></g></mask><clipPath id="705e72aae5"><path d="M 1 0.457031 L 13.617188 0.457031 L 13.617188 10.355469 L 1 10.355469 Z M 1 0.457031 " clip-rule="nonzero"/></clipPath><clipPath id="42c8dcbc7a"><rect x="0" width="14" y="0" height="11"/></clipPath></defs><path fill="#e0e5ff" d="M 36.027344 11.90625 L 36.027344 25.945312 C 34.117188 22.421875 25.609375 20.046875 25.609375 20.046875 L 25.609375 10.792969 C 25.609375 5.207031 34.292969 4.183594 35.730469 9.609375 C 35.921875 10.34375 36.027344 11.113281 36.027344 11.90625 Z M 36.027344 11.90625 " fill-opacity="1" fill-rule="nonzero"/><path fill="#e0e5ff" d="M 5.90625 30.429688 L 5.90625 16.390625 C 7.816406 19.914062 16.320312 22.289062 16.320312 22.289062 L 16.320312 30.6875 C 16.320312 36.839844 6.378906 37.230469 5.929688 31.09375 C 5.914062 30.871094 5.90625 30.652344 5.90625 30.429688 Z M 5.90625 30.429688 " fill-opacity="1" fill-rule="nonzero"/><g mask="url(#a72ecc1111)"><g transform="matrix(1, 0, 0, 1, 25, 14)"><g clip-path="url(#c464585371)"><g clip-path="url(#cf12573533)"><path fill="#a6a6a6" d="M 11.027344 7.085938 L 11.027344 10.832031 C 9.113281 7.304688 0.609375 4.933594 0.609375 4.933594 L 0.609375 0.765625 L 0.679688 0.765625 C 5.289062 0.765625 9.304688 3.335938 11.027344 7.085938 Z M 11.027344 7.085938 " fill-opacity="1" fill-rule="nonzero"/></g></g></g></g><g mask="url(#6fee89202a)"><g transform="matrix(1, 0, 0, 1, 5, 16)"><g clip-path="url(#05cceba93d)"><g clip-path="url(#f15026aaa4)"><path fill="#a6a6a6" d="M 0.902344 4.449219 L 0.902344 0.703125 C 2.816406 4.226562 11.320312 6.601562 11.320312 6.601562 L 11.320312 10.769531 L 11.25 10.769531 C 6.640625 10.769531 2.625 8.195312 0.902344 4.449219 Z M 0.902344 4.449219 " fill-opacity="1" fill-rule="nonzero"/></g></g></g></g><path fill="#fefeff" d="M 36.027344 24.476562 L 36.027344 30.324219 C 36.027344 31.53125 35.785156 32.691406 35.34375 33.757812 C 33.628906 29.070312 28.871094 25.679688 23.246094 25.59375 C 23.171875 25.585938 23.097656 25.582031 23.023438 25.582031 L 16.308594 25.582031 C 10.730469 25.582031 6.183594 21.535156 5.902344 16.445312 L 5.902344 11.210938 C 5.902344 10 6.144531 8.847656 6.582031 7.78125 C 7.230469 9.550781 8.3125 11.136719 9.710938 12.429688 C 12.0625 14.605469 15.316406 15.949219 18.90625 15.949219 L 25.675781 15.949219 C 31.027344 15.949219 35.433594 19.675781 36.027344 24.476562 Z M 36.027344 24.476562 " fill-opacity="1" fill-rule="nonzero"/><path fill="#fefeff" d="M 36.027344 24.476562 L 36.027344 30.324219 C 36.027344 31.53125 35.785156 32.691406 35.34375 33.757812 C 33.628906 29.070312 28.871094 25.679688 23.246094 25.59375 C 23.171875 25.585938 23.097656 25.582031 23.023438 25.582031 L 16.308594 25.582031 C 10.730469 25.582031 6.183594 21.535156 5.902344 16.445312 L 5.902344 11.210938 C 5.902344 10 6.144531 8.847656 6.582031 7.78125 C 7.230469 9.550781 8.3125 11.136719 9.710938 12.429688 C 12.0625 14.605469 15.316406 15.949219 18.90625 15.949219 L 25.675781 15.949219 C 31.027344 15.949219 35.433594 19.675781 36.027344 24.476562 Z M 36.027344 24.476562 " fill-opacity="1" fill-rule="nonzero"/><g mask="url(#e0fccc2944)"><g transform="matrix(1, 0, 0, 1, 6, 7)"><g clip-path="url(#055447d5a7)"><g clip-path="url(#76a10d67b7)"><path fill="#ffffff" d="M 30.027344 17.476562 L 30.027344 18.59375 C 29.425781 13.722656 24.953125 9.9375 19.523438 9.9375 L 12.652344 9.9375 C 9.011719 9.9375 5.738281 8.546875 3.324219 6.367188 C 0.578125 3.886719 0.464844 1.070312 0.585938 0.777344 C 1.230469 2.546875 2.3125 4.132812 3.710938 5.425781 C 6.066406 7.601562 9.316406 8.949219 12.90625 8.949219 L 19.679688 8.949219 C 25.027344 8.949219 29.433594 12.675781 30.027344 17.476562 Z M 30.027344 17.476562 " fill-opacity="1" fill-rule="nonzero"/></g></g></g></g><path fill="#a6a6a6" d="M 35.34375 33.757812 C 34.726562 35.257812 33.710938 36.582031 32.421875 37.613281 C 30.59375 39.070312 28.214844 39.957031 25.609375 39.957031 L 25.609375 27.972656 C 25.609375 26.722656 24.570312 25.695312 23.246094 25.59375 C 28.875 25.679688 33.628906 29.070312 35.34375 33.757812 Z M 35.34375 33.757812 " fill-opacity="1" fill-rule="nonzero"/><path fill="#e0e5ff" d="M 18.90625 15.949219 C 15.316406 15.949219 12.066406 14.605469 9.710938 12.429688 C 8.3125 11.132812 7.230469 9.550781 6.585938 7.777344 C 7.203125 6.28125 8.210938 4.960938 9.5 3.929688 C 11.328125 2.464844 13.710938 1.578125 16.320312 1.578125 L 16.320312 13.5625 C 16.320312 14.882812 17.480469 15.949219 18.90625 15.949219 Z M 18.90625 15.949219 " fill-opacity="1" fill-rule="nonzero"/><g mask="url(#1b297e8200)"><g transform="matrix(1, 0, 0, 1, 6, 6)"><g clip-path="url(#7324698d3d)"><g clip-path="url(#ea4f64005e)"><path fill="#e0e5ff" d="M 12.90625 9.949219 C 9.316406 9.949219 6.066406 8.605469 3.710938 6.429688 C 2.3125 5.132812 1.230469 3.550781 0.585938 1.777344 C 0.78125 1.296875 1.019531 0.835938 1.292969 0.398438 C 1.832031 2.144531 3.023438 4.269531 4.160156 5.5625 C 6.125 7.804688 8.953125 9.394531 12.242188 9.871094 L 12.246094 9.871094 C 12.453125 9.921875 12.679688 9.949219 12.90625 9.949219 Z M 12.90625 9.949219 " fill-opacity="1" fill-rule="nonzero"/></g></g></g></g><path fill="#e0e5ff" d="M 23.023438 25.582031 C 26.613281 25.582031 29.863281 26.929688 32.21875 29.105469 C 33.617188 30.398438 34.699219 31.984375 35.34375 33.753906 C 34.726562 35.253906 33.71875 36.574219 32.429688 37.605469 C 30.601562 39.070312 28.21875 39.957031 25.609375 39.957031 L 25.609375 27.972656 C 25.609375 26.652344 24.449219 25.582031 23.023438 25.582031 Z M 23.023438 25.582031 " fill-opacity="1" fill-rule="nonzero"/><g mask="url(#f953d8c15c)"><g transform="matrix(1, 0, 0, 1, 22, 25)"><g clip-path="url(#42c8dcbc7a)"><g clip-path="url(#705e72aae5)"><path fill="#e0e5ff" d="M 1.023438 0.582031 C 4.613281 0.582031 7.863281 1.929688 10.21875 4.105469 C 11.617188 5.398438 12.699219 6.984375 13.34375 8.753906 C 13.148438 9.234375 12.910156 9.695312 12.636719 10.132812 C 12.097656 8.390625 10.90625 6.261719 9.769531 4.96875 C 7.804688 2.726562 4.976562 1.136719 1.6875 0.660156 L 1.683594 0.660156 C 1.476562 0.609375 1.25 0.582031 1.023438 0.582031 Z M 1.023438 0.582031 " fill-opacity="1" fill-rule="nonzero"/></g></g></g></g><path fill="#ffffff" d="M 23.023438 25.582031 C 23.679688 25.570312 24.335938 25.605469 24.988281 25.679688 C 25.636719 25.765625 26.28125 25.894531 26.917969 26.0625 C 27.554688 26.238281 28.171875 26.46875 28.773438 26.734375 C 29.375 27.003906 29.953125 27.320312 30.507812 27.675781 C 31.0625 28.03125 31.585938 28.4375 32.074219 28.875 C 32.570312 29.3125 33.027344 29.789062 33.4375 30.304688 C 33.847656 30.816406 34.222656 31.363281 34.539062 31.9375 C 34.859375 32.511719 35.128906 33.113281 35.339844 33.730469 C 35.089844 33.125 34.808594 32.535156 34.46875 31.980469 C 34.136719 31.417969 33.753906 30.886719 33.335938 30.386719 C 33.128906 30.136719 32.90625 29.898438 32.683594 29.664062 C 32.453125 29.433594 32.222656 29.203125 31.972656 28.992188 C 31.488281 28.5625 30.96875 28.167969 30.417969 27.820312 C 29.871094 27.46875 29.304688 27.148438 28.710938 26.878906 C 28.117188 26.609375 27.507812 26.386719 26.882812 26.191406 C 26.257812 26.007812 25.621094 25.863281 24.976562 25.761719 C 24.328125 25.660156 23.679688 25.609375 23.023438 25.582031 Z M 23.023438 25.582031 " fill-opacity="1" fill-rule="nonzero"/><path fill="#ffffff" d="M 18.90625 15.949219 C 18.25 15.964844 17.59375 15.929688 16.941406 15.855469 C 16.292969 15.769531 15.648438 15.640625 15.011719 15.46875 C 14.375 15.292969 13.757812 15.0625 13.15625 14.796875 C 12.554688 14.53125 11.976562 14.210938 11.421875 13.855469 C 10.867188 13.5 10.34375 13.097656 9.855469 12.65625 C 9.359375 12.222656 8.902344 11.742188 8.492188 11.230469 C 8.082031 10.714844 7.707031 10.171875 7.390625 9.597656 C 7.070312 9.023438 6.800781 8.421875 6.589844 7.800781 C 6.839844 8.40625 7.121094 8.996094 7.460938 9.554688 C 7.792969 10.117188 8.175781 10.648438 8.589844 11.144531 C 8.800781 11.394531 9.023438 11.632812 9.246094 11.871094 C 9.476562 12.101562 9.707031 12.332031 9.957031 12.539062 C 10.441406 12.96875 10.960938 13.363281 11.511719 13.710938 C 12.058594 14.066406 12.625 14.386719 13.21875 14.652344 C 13.8125 14.921875 14.421875 15.148438 15.046875 15.339844 C 15.671875 15.523438 16.308594 15.667969 16.953125 15.769531 C 17.601562 15.875 18.25 15.925781 18.90625 15.949219 Z M 18.90625 15.949219 " fill-opacity="1" fill-rule="nonzero"/></svg>