<svg width="19" height="24" viewBox="0 0 19 24" fill="none" xmlns="http://www.w3.org/2000/svg">
<path d="M15.795 12.4435C15.795 9.52133 18.2459 8.10733 18.3401 8.01313C16.9262 6.03353 14.8523 5.75073 14.0982 5.65643C12.3072 5.46793 10.5161 6.69343 9.6677 6.69343C8.7251 6.69343 7.3111 5.65643 5.8028 5.65643C3.8233 5.65643 2.0322 6.78763 0.995299 8.57873C-1.0785 12.1607 0.4297 17.4396 2.4093 20.3618C3.4462 21.7758 4.5774 23.3783 6.0856 23.2841C7.5939 23.1898 8.1595 22.3414 9.9505 22.3414C11.7416 22.3414 12.2129 23.2841 13.8154 23.2841C15.4179 23.2841 16.4548 21.8701 17.3975 20.4561C18.5287 18.8536 19 17.2511 19 17.1568C18.9057 17.0625 15.795 15.9314 15.795 12.4435Z" fill="white"/>
<path d="M12.8707 3.7706C13.6248 2.7337 14.1904 1.414 14.0961 0C12.9649 0.0943 11.4567 0.7541 10.7026 1.791C9.94851 2.6394 9.28861 4.0534 9.47711 5.3731C10.7026 5.4674 12.0223 4.7133 12.8707 3.7706Z" fill="white"/>
</svg>
