<svg width="46" height="18" viewBox="0 0 46 18" fill="none" xmlns="http://www.w3.org/2000/svg">
<path d="M13.0383 17.64V0.359999H6.0457C4.79933 0.359999 3.79171 0.608 3.02285 1.104C2.25399 1.592 1.6915 2.208 1.3354 2.952C0.979291 3.696 0.801238 4.448 0.801238 5.208C0.801238 6.176 1.0238 6.98 1.46894 7.62C1.90597 8.26 2.50892 8.688 3.27779 8.904V8.304C2.18519 8.528 1.36777 9.028 0.825519 9.804C0.275173 10.58 0 11.448 0 12.408C0 13.44 0.194239 14.348 0.582719 15.132C0.963103 15.916 1.54582 16.532 2.33087 16.98C3.11592 17.42 4.1033 17.64 5.29302 17.64H13.0383ZM9.68769 14.568H5.63294C5.18781 14.568 4.79124 14.476 4.44322 14.292C4.09521 14.1 3.82409 13.836 3.62985 13.5C3.42751 13.156 3.32635 12.752 3.32635 12.288C3.32635 11.88 3.41133 11.516 3.58129 11.196C3.75125 10.876 4.01023 10.624 4.35825 10.44C4.69816 10.248 5.12306 10.152 5.63294 10.152H9.68769V14.568ZM9.68769 7.104H6.09426C5.72197 7.104 5.39014 7.04 5.09878 6.912C4.80742 6.784 4.57676 6.588 4.4068 6.324C4.23684 6.052 4.15187 5.704 4.15187 5.28C4.15187 4.752 4.31778 4.308 4.6496 3.948C4.98143 3.588 5.46298 3.408 6.09426 3.408H9.68769V7.104Z" fill="#747B80"/>
<path d="M20.7112 18C19.392 18 18.2347 17.708 17.2392 17.124C16.2437 16.54 15.4668 15.736 14.9083 14.712C14.358 13.68 14.0828 12.496 14.0828 11.16C14.0828 9.808 14.3661 8.62 14.9326 7.596C15.4991 6.564 16.2801 5.76 17.2756 5.184C18.2711 4.608 19.4163 4.32 20.7112 4.32C22.0304 4.32 23.1878 4.612 24.1832 5.196C25.1868 5.78 25.9678 6.588 26.5263 7.62C27.0847 8.644 27.3639 9.824 27.3639 11.16C27.3639 12.504 27.0807 13.692 26.5141 14.724C25.9557 15.748 25.1747 16.552 24.1711 17.136C23.1756 17.712 22.0223 18 20.7112 18ZM20.7112 14.952C21.7714 14.952 22.5605 14.6 23.0785 13.896C23.6046 13.184 23.8676 12.272 23.8676 11.16C23.8676 10.008 23.6005 9.088 23.0664 8.4C22.5403 7.712 21.7553 7.368 20.7112 7.368C19.9909 7.368 19.4001 7.528 18.9388 7.848C18.4775 8.168 18.1335 8.612 17.9069 9.18C17.6884 9.748 17.5791 10.408 17.5791 11.16C17.5791 12.32 17.8421 13.244 18.3682 13.932C18.9024 14.612 19.6834 14.952 20.7112 14.952Z" fill="#747B80"/>
<path d="M28.4966 17.64V0H31.7987V17.64H28.4966Z" fill="#747B80"/>
<path d="M39.5415 18C38.3356 18 37.2795 17.7 36.373 17.1C35.4666 16.5 34.7584 15.684 34.2485 14.652C33.7467 13.62 33.4958 12.456 33.4958 11.16C33.4958 9.84 33.7508 8.668 34.2607 7.644C34.7786 6.612 35.503 5.8 36.4337 5.208C37.3644 4.616 38.457 4.32 39.7115 4.32C40.9579 4.32 42.006 4.62 42.8558 5.22C43.7055 5.82 44.349 6.636 44.786 7.668C45.223 8.7 45.4416 9.864 45.4416 11.16C45.4416 12.456 45.219 13.62 44.7739 14.652C44.3368 15.684 43.6813 16.5 42.8072 17.1C41.9331 17.7 40.8446 18 39.5415 18ZM40.0757 15.096C40.8122 15.096 41.399 14.932 41.836 14.604C42.2811 14.276 42.6008 13.816 42.7951 13.224C42.9893 12.632 43.0864 11.944 43.0864 11.16C43.0864 10.376 42.9893 9.688 42.7951 9.096C42.6008 8.504 42.2892 8.044 41.8603 7.716C41.4394 7.388 40.885 7.224 40.1971 7.224C39.4606 7.224 38.8536 7.404 38.3761 7.764C37.9067 8.116 37.5587 8.592 37.3321 9.192C37.1055 9.784 36.9922 10.44 36.9922 11.16C36.9922 11.888 37.1014 12.552 37.3199 13.152C37.5384 13.744 37.8743 14.216 38.3275 14.568C38.7808 14.92 39.3635 15.096 40.0757 15.096ZM43.0864 17.64V8.76H42.6737V0.359999H46V17.64H43.0864Z" fill="#747B80"/>
</svg>
