<svg width="70" height="70" viewBox="0 0 70 70" fill="none" xmlns="http://www.w3.org/2000/svg">
<path d="M55.4167 32.0833H14.5833C11.3617 32.0833 8.75 34.695 8.75 37.9166V58.3333C8.75 61.555 11.3617 64.1666 14.5833 64.1666H55.4167C58.6383 64.1666 61.25 61.555 61.25 58.3333V37.9166C61.25 34.695 58.6383 32.0833 55.4167 32.0833Z" stroke="#212121" stroke-width="5.5" stroke-linecap="round" stroke-linejoin="round"/>
<path d="M20.4167 32.0833V20.4166C20.4167 16.5489 21.9531 12.8396 24.688 10.1047C27.4229 7.36977 31.1322 5.83331 35 5.83331C38.8677 5.83331 42.5771 7.36977 45.312 10.1047C48.0469 12.8396 49.5833 16.5489 49.5833 20.4166V32.0833" stroke="#212121" stroke-width="5.5" stroke-linecap="round" stroke-linejoin="round"/>
</svg>
