<svg xmlns="http://www.w3.org/2000/svg" xmlns:xlink="http://www.w3.org/1999/xlink" width="1200" zoomAndPan="magnify" viewBox="0 0 900 374.999991" height="500" preserveAspectRatio="xMidYMid meet" version="1.0"><defs><g/></defs><path fill="#4b6af8" d="M 193.363281 129.992188 L 193.363281 208.628906 C 182.660156 188.882812 135.023438 175.597656 135.023438 175.597656 L 135.023438 123.769531 C 135.023438 92.484375 183.65625 86.746094 191.695312 117.136719 C 192.78125 121.257812 193.363281 125.566406 193.363281 129.992188 Z M 193.363281 129.992188 " fill-opacity="1" fill-rule="nonzero"/><path fill="#4b6af8" d="M 24.667969 233.75 L 24.667969 155.113281 C 35.371094 174.859375 83.007812 188.144531 83.007812 188.144531 L 83.007812 235.171875 C 83.007812 269.632812 27.3125 271.828125 24.800781 237.449219 C 24.710938 236.222656 24.667969 234.988281 24.667969 233.75 Z M 24.667969 233.75 " fill-opacity="1" fill-rule="nonzero"/><path fill="#1f1e21" d="M 193.359375 181.402344 L 193.359375 202.378906 C 182.65625 182.632812 135.015625 169.351562 135.015625 169.351562 L 135.015625 146.007812 L 135.40625 146.007812 C 161.234375 146.011719 183.714844 160.417969 193.359375 181.402344 Z M 193.359375 181.402344 " fill-opacity="0.2" fill-rule="nonzero"/><path fill="#1f1e21" d="M 24.660156 177.84375 L 24.660156 156.863281 C 35.363281 176.609375 83.003906 189.894531 83.003906 189.894531 L 83.003906 213.234375 L 82.613281 213.234375 C 56.789062 213.230469 34.304688 198.828125 24.660156 177.84375 Z M 24.660156 177.84375 " fill-opacity="0.2" fill-rule="nonzero"/><path fill="#6485ff" d="M 193.359375 200.40625 L 193.359375 233.140625 C 193.359375 239.914062 192.003906 246.40625 189.53125 252.375 C 179.925781 226.117188 153.292969 207.128906 121.777344 206.648438 C 121.367188 206.617188 120.957031 206.597656 120.542969 206.597656 L 82.925781 206.597656 C 51.703125 206.597656 26.222656 183.933594 24.65625 155.425781 L 24.65625 126.109375 C 24.65625 119.335938 26.011719 112.863281 28.46875 106.894531 C 32.09375 116.8125 38.144531 125.6875 45.984375 132.933594 C 59.160156 145.117188 77.371094 152.652344 97.476562 152.652344 L 135.398438 152.652344 C 165.355469 152.644531 190.042969 173.523438 193.359375 200.40625 Z M 193.359375 200.40625 " fill-opacity="1" fill-rule="nonzero"/><path fill="#6485ff" d="M 193.359375 200.40625 L 193.359375 233.140625 C 193.359375 239.914062 192.003906 246.40625 189.53125 252.375 C 179.925781 226.117188 153.292969 207.128906 121.777344 206.648438 C 121.367188 206.617188 120.957031 206.597656 120.542969 206.597656 L 82.925781 206.597656 C 51.703125 206.597656 26.222656 183.933594 24.65625 155.425781 L 24.65625 126.109375 C 24.65625 119.335938 26.011719 112.863281 28.46875 106.894531 C 32.09375 116.8125 38.144531 125.6875 45.984375 132.933594 C 59.160156 145.117188 77.371094 152.652344 97.476562 152.652344 L 135.398438 152.652344 C 165.355469 152.644531 190.042969 173.523438 193.359375 200.40625 Z M 193.359375 200.40625 " fill-opacity="1" fill-rule="nonzero"/><path fill="#ffffff" d="M 193.359375 200.40625 L 193.359375 206.648438 C 189.996094 179.375 164.949219 158.1875 134.550781 158.1875 L 96.070312 158.1875 C 75.667969 158.1875 57.347656 150.390625 43.820312 138.171875 C 28.4375 124.28125 27.800781 108.515625 28.476562 106.882812 C 32.097656 116.796875 38.152344 125.675781 45.992188 132.921875 C 59.167969 145.105469 77.378906 152.640625 97.480469 152.640625 L 135.40625 152.640625 C 165.355469 152.644531 190.042969 173.523438 193.359375 200.40625 Z M 193.359375 200.40625 " fill-opacity="0.498" fill-rule="nonzero"/><path fill="#1f1e21" d="M 189.535156 252.375 C 186.074219 260.785156 180.398438 268.183594 173.164062 273.960938 C 162.941406 282.140625 149.605469 287.085938 135.015625 287.085938 L 135.015625 219.972656 C 135.015625 212.96875 129.203125 207.222656 121.78125 206.648438 C 153.296875 207.128906 179.933594 226.117188 189.535156 252.375 Z M 189.535156 252.375 " fill-opacity="1" fill-rule="nonzero"/><path fill="#4b6af8" d="M 97.480469 152.644531 C 77.378906 152.644531 59.167969 145.113281 45.992188 132.925781 C 38.15625 125.679688 32.097656 116.804688 28.476562 106.886719 C 31.933594 98.496094 37.589844 91.105469 44.804688 85.328125 C 55.035156 77.121094 68.386719 72.15625 83.003906 72.15625 L 83.003906 139.277344 C 83.007812 146.664062 89.488281 152.644531 97.480469 152.644531 Z M 97.480469 152.644531 " fill-opacity="1" fill-rule="nonzero"/><path fill="#4b6af8" d="M 97.480469 152.644531 C 77.378906 152.644531 59.167969 145.113281 45.992188 132.925781 C 38.15625 125.679688 32.097656 116.804688 28.476562 106.886719 C 29.574219 104.199219 30.910156 101.617188 32.449219 99.15625 C 35.460938 108.933594 42.125 120.835938 48.488281 128.082031 C 59.492188 140.640625 75.347656 149.539062 93.769531 152.207031 L 93.777344 152.207031 C 94.953125 152.492188 96.203125 152.644531 97.480469 152.644531 Z M 97.480469 152.644531 " fill-opacity="0.698" fill-rule="nonzero"/><path fill="#4b6af8" d="M 120.539062 206.597656 C 140.640625 206.597656 158.851562 214.132812 172.027344 226.316406 C 179.863281 233.5625 185.917969 242.4375 189.542969 252.355469 C 186.085938 260.746094 180.429688 268.140625 173.214844 273.914062 C 162.984375 282.121094 149.628906 287.085938 135.015625 287.085938 L 135.015625 219.972656 C 135.015625 212.578125 128.53125 206.597656 120.539062 206.597656 Z M 120.539062 206.597656 " fill-opacity="1" fill-rule="nonzero"/><path fill="#4b6af8" d="M 120.539062 206.597656 C 140.640625 206.597656 158.851562 214.132812 172.027344 226.316406 C 179.863281 233.5625 185.917969 242.4375 189.542969 252.355469 C 188.445312 255.046875 187.109375 257.628906 185.566406 260.085938 C 182.558594 250.3125 175.894531 238.40625 169.527344 231.160156 C 158.527344 218.605469 142.671875 209.703125 124.25 207.039062 L 124.242188 207.039062 C 123.066406 206.75 121.816406 206.597656 120.539062 206.597656 Z M 120.539062 206.597656 " fill-opacity="0.698" fill-rule="nonzero"/><path fill="#ffffff" d="M 120.539062 206.597656 C 124.203125 206.519531 127.878906 206.710938 131.535156 207.128906 C 135.175781 207.613281 138.792969 208.335938 142.351562 209.289062 C 145.90625 210.269531 149.363281 211.5625 152.734375 213.050781 C 156.109375 214.546875 159.34375 216.335938 162.457031 218.316406 C 165.5625 220.308594 168.488281 222.570312 171.234375 225.039062 C 173.996094 227.480469 176.566406 230.152344 178.863281 233.03125 C 181.160156 235.914062 183.253906 238.960938 185.039062 242.175781 C 186.8125 245.398438 188.320312 248.765625 189.503906 252.234375 C 188.125 248.839844 186.539062 245.53125 184.636719 242.414062 C 182.78125 239.269531 180.640625 236.292969 178.300781 233.5 C 177.125 232.105469 175.894531 230.765625 174.636719 229.449219 C 173.351562 228.15625 172.058594 226.867188 170.667969 225.695312 C 167.9375 223.28125 165.023438 221.078125 161.949219 219.128906 C 158.890625 217.152344 155.714844 215.359375 152.390625 213.855469 C 149.074219 212.347656 145.644531 211.089844 142.160156 210.003906 C 138.660156 208.972656 135.09375 208.175781 131.484375 207.601562 C 127.855469 207.019531 124.203125 206.738281 120.539062 206.597656 Z M 120.539062 206.597656 " fill-opacity="1" fill-rule="nonzero"/><path fill="#f5f6f6" d="M 97.480469 152.644531 C 93.8125 152.722656 90.140625 152.53125 86.484375 152.117188 C 82.84375 151.628906 79.226562 150.910156 75.667969 149.957031 C 72.113281 148.972656 68.65625 147.679688 65.28125 146.191406 C 61.910156 144.695312 58.675781 142.90625 55.5625 140.925781 C 52.457031 138.933594 49.53125 136.671875 46.785156 134.203125 C 44.023438 131.765625 41.453125 129.09375 39.152344 126.210938 C 36.859375 123.328125 34.765625 120.28125 32.980469 117.066406 C 31.203125 113.847656 29.695312 110.480469 28.515625 107.007812 C 29.894531 110.402344 31.480469 113.710938 33.382812 116.832031 C 35.238281 119.972656 37.378906 122.953125 39.714844 125.746094 C 40.890625 127.136719 42.125 128.480469 43.382812 129.796875 C 44.667969 131.085938 45.960938 132.378906 47.351562 133.546875 C 50.082031 135.960938 52.996094 138.167969 56.070312 140.117188 C 59.128906 142.089844 62.304688 143.886719 65.628906 145.386719 C 68.945312 146.894531 72.375 148.152344 75.859375 149.242188 C 79.359375 150.269531 82.925781 151.066406 86.535156 151.644531 C 90.164062 152.222656 93.8125 152.503906 97.480469 152.644531 Z M 97.480469 152.644531 " fill-opacity="1" fill-rule="nonzero"/><g fill="#212b5d" fill-opacity="1"><g transform="translate(204.004708, 256.804181)"><g><path d="M 44.703125 1.125 C 36.972656 1.125 30.019531 -0.519531 23.84375 -3.8125 C 17.664062 -7.113281 12.804688 -11.832031 9.265625 -17.96875 C 5.734375 -24.101562 3.96875 -31.269531 3.96875 -39.46875 C 3.96875 -47.582031 5.757812 -54.726562 9.34375 -60.90625 C 12.925781 -67.082031 17.828125 -71.820312 24.046875 -75.125 C 30.273438 -78.425781 37.253906 -80.078125 44.984375 -80.078125 C 52.722656 -80.078125 59.703125 -78.425781 65.921875 -75.125 C 72.148438 -71.820312 77.054688 -67.082031 80.640625 -60.90625 C 84.222656 -54.726562 86.015625 -47.582031 86.015625 -39.46875 C 86.015625 -31.363281 84.195312 -24.21875 80.5625 -18.03125 C 76.9375 -11.851562 71.988281 -7.113281 65.71875 -3.8125 C 59.445312 -0.519531 52.441406 1.125 44.703125 1.125 Z M 44.703125 -19.8125 C 49.328125 -19.8125 53.265625 -21.507812 56.515625 -24.90625 C 59.773438 -28.300781 61.40625 -33.15625 61.40625 -39.46875 C 61.40625 -45.789062 59.820312 -50.648438 56.65625 -54.046875 C 53.5 -57.441406 49.609375 -59.140625 44.984375 -59.140625 C 40.273438 -59.140625 36.363281 -57.460938 33.25 -54.109375 C 30.132812 -50.765625 28.578125 -45.882812 28.578125 -39.46875 C 28.578125 -33.15625 30.109375 -28.300781 33.171875 -24.90625 C 36.242188 -21.507812 40.085938 -19.8125 44.703125 -19.8125 Z M 44.703125 -19.8125 "/></g></g></g><g fill="#212b5d" fill-opacity="1"><g transform="translate(287.899862, 256.804181)"><g><path d="M 109.515625 -79.796875 C 119.316406 -79.796875 127.117188 -76.820312 132.921875 -70.875 C 138.722656 -64.9375 141.625 -56.6875 141.625 -46.125 L 141.625 0 L 117.578125 0 L 117.578125 -42.875 C 117.578125 -47.96875 116.234375 -51.90625 113.546875 -54.6875 C 110.859375 -57.46875 107.15625 -58.859375 102.4375 -58.859375 C 97.71875 -58.859375 94.015625 -57.46875 91.328125 -54.6875 C 88.640625 -51.90625 87.296875 -47.96875 87.296875 -42.875 L 87.296875 0 L 63.25 0 L 63.25 -42.875 C 63.25 -47.96875 61.898438 -51.90625 59.203125 -54.6875 C 56.515625 -57.46875 52.816406 -58.859375 48.109375 -58.859375 C 43.390625 -58.859375 39.6875 -57.46875 37 -54.6875 C 34.3125 -51.90625 32.96875 -47.96875 32.96875 -42.875 L 32.96875 0 L 8.765625 0 L 8.765625 -78.953125 L 32.96875 -78.953125 L 32.96875 -69.046875 C 35.414062 -72.347656 38.617188 -74.960938 42.578125 -76.890625 C 46.546875 -78.828125 51.03125 -79.796875 56.03125 -79.796875 C 61.96875 -79.796875 67.269531 -78.519531 71.9375 -75.96875 C 76.613281 -73.425781 80.269531 -69.796875 82.90625 -65.078125 C 85.644531 -69.421875 89.367188 -72.957031 94.078125 -75.6875 C 98.796875 -78.425781 103.941406 -79.796875 109.515625 -79.796875 Z M 109.515625 -79.796875 "/></g></g></g><g fill="#212b5d" fill-opacity="1"><g transform="translate(431.498038, 256.804181)"><g><path d="M 44.703125 1.125 C 36.972656 1.125 30.019531 -0.519531 23.84375 -3.8125 C 17.664062 -7.113281 12.804688 -11.832031 9.265625 -17.96875 C 5.734375 -24.101562 3.96875 -31.269531 3.96875 -39.46875 C 3.96875 -47.582031 5.757812 -54.726562 9.34375 -60.90625 C 12.925781 -67.082031 17.828125 -71.820312 24.046875 -75.125 C 30.273438 -78.425781 37.253906 -80.078125 44.984375 -80.078125 C 52.722656 -80.078125 59.703125 -78.425781 65.921875 -75.125 C 72.148438 -71.820312 77.054688 -67.082031 80.640625 -60.90625 C 84.222656 -54.726562 86.015625 -47.582031 86.015625 -39.46875 C 86.015625 -31.363281 84.195312 -24.21875 80.5625 -18.03125 C 76.9375 -11.851562 71.988281 -7.113281 65.71875 -3.8125 C 59.445312 -0.519531 52.441406 1.125 44.703125 1.125 Z M 44.703125 -19.8125 C 49.328125 -19.8125 53.265625 -21.507812 56.515625 -24.90625 C 59.773438 -28.300781 61.40625 -33.15625 61.40625 -39.46875 C 61.40625 -45.789062 59.820312 -50.648438 56.65625 -54.046875 C 53.5 -57.441406 49.609375 -59.140625 44.984375 -59.140625 C 40.273438 -59.140625 36.363281 -57.460938 33.25 -54.109375 C 30.132812 -50.765625 28.578125 -45.882812 28.578125 -39.46875 C 28.578125 -33.15625 30.109375 -28.300781 33.171875 -24.90625 C 36.242188 -21.507812 40.085938 -19.8125 44.703125 -19.8125 Z M 44.703125 -19.8125 "/></g></g></g><g fill="#212b5d" fill-opacity="1"><g transform="translate(515.393198, 256.804181)"><g><path d="M 32.96875 -67.765625 C 35.226562 -71.441406 38.476562 -74.410156 42.71875 -76.671875 C 46.96875 -78.941406 51.828125 -80.078125 57.296875 -80.078125 C 63.804688 -80.078125 69.703125 -78.425781 74.984375 -75.125 C 80.265625 -71.820312 84.4375 -67.101562 87.5 -60.96875 C 90.570312 -54.84375 92.109375 -47.722656 92.109375 -39.609375 C 92.109375 -31.503906 90.570312 -24.359375 87.5 -18.171875 C 84.4375 -11.992188 80.265625 -7.234375 74.984375 -3.890625 C 69.703125 -0.546875 63.804688 1.125 57.296875 1.125 C 51.734375 1.125 46.875 0.0195312 42.71875 -2.1875 C 38.570312 -4.40625 35.320312 -7.351562 32.96875 -11.03125 L 32.96875 0 L 8.765625 0 L 8.765625 -104.703125 L 32.96875 -104.703125 Z M 67.484375 -39.609375 C 67.484375 -45.648438 65.804688 -50.390625 62.453125 -53.828125 C 59.109375 -57.273438 54.984375 -59 50.078125 -59 C 45.273438 -59 41.195312 -57.253906 37.84375 -53.765625 C 34.5 -50.273438 32.828125 -45.507812 32.828125 -39.46875 C 32.828125 -33.4375 34.5 -28.675781 37.84375 -25.1875 C 41.195312 -21.695312 45.273438 -19.953125 50.078125 -19.953125 C 54.890625 -19.953125 58.992188 -21.71875 62.390625 -25.25 C 65.785156 -28.789062 67.484375 -33.578125 67.484375 -39.609375 Z M 67.484375 -39.609375 "/></g></g></g><g fill="#212b5d" fill-opacity="1"><g transform="translate(605.230358, 256.804181)"><g><path d="M 44.703125 1.125 C 36.972656 1.125 30.019531 -0.519531 23.84375 -3.8125 C 17.664062 -7.113281 12.804688 -11.832031 9.265625 -17.96875 C 5.734375 -24.101562 3.96875 -31.269531 3.96875 -39.46875 C 3.96875 -47.582031 5.757812 -54.726562 9.34375 -60.90625 C 12.925781 -67.082031 17.828125 -71.820312 24.046875 -75.125 C 30.273438 -78.425781 37.253906 -80.078125 44.984375 -80.078125 C 52.722656 -80.078125 59.703125 -78.425781 65.921875 -75.125 C 72.148438 -71.820312 77.054688 -67.082031 80.640625 -60.90625 C 84.222656 -54.726562 86.015625 -47.582031 86.015625 -39.46875 C 86.015625 -31.363281 84.195312 -24.21875 80.5625 -18.03125 C 76.9375 -11.851562 71.988281 -7.113281 65.71875 -3.8125 C 59.445312 -0.519531 52.441406 1.125 44.703125 1.125 Z M 44.703125 -19.8125 C 49.328125 -19.8125 53.265625 -21.507812 56.515625 -24.90625 C 59.773438 -28.300781 61.40625 -33.15625 61.40625 -39.46875 C 61.40625 -45.789062 59.820312 -50.648438 56.65625 -54.046875 C 53.5 -57.441406 49.609375 -59.140625 44.984375 -59.140625 C 40.273438 -59.140625 36.363281 -57.460938 33.25 -54.109375 C 30.132812 -50.765625 28.578125 -45.882812 28.578125 -39.46875 C 28.578125 -33.15625 30.109375 -28.300781 33.171875 -24.90625 C 36.242188 -21.507812 40.085938 -19.8125 44.703125 -19.8125 Z M 44.703125 -19.8125 "/></g></g></g><g fill="#212b5d" fill-opacity="1"><g transform="translate(689.125492, 256.804181)"><g><path d="M 56.875 -79.796875 C 66.113281 -79.796875 73.492188 -76.800781 79.015625 -70.8125 C 84.535156 -64.820312 87.296875 -56.59375 87.296875 -46.125 L 87.296875 0 L 63.25 0 L 63.25 -42.875 C 63.25 -48.15625 61.878906 -52.253906 59.140625 -55.171875 C 56.398438 -58.097656 52.722656 -59.5625 48.109375 -59.5625 C 43.484375 -59.5625 39.800781 -58.097656 37.0625 -55.171875 C 34.332031 -52.253906 32.96875 -48.15625 32.96875 -42.875 L 32.96875 0 L 8.765625 0 L 8.765625 -78.953125 L 32.96875 -78.953125 L 32.96875 -68.484375 C 35.414062 -71.972656 38.710938 -74.726562 42.859375 -76.75 C 47.015625 -78.78125 51.6875 -79.796875 56.875 -79.796875 Z M 56.875 -79.796875 "/></g></g></g><g fill="#212b5d" fill-opacity="1"><g transform="translate(778.255289, 256.804181)"><g><path d="M 3.96875 -39.609375 C 3.96875 -47.722656 5.5 -54.84375 8.5625 -60.96875 C 11.625 -67.101562 15.796875 -71.820312 21.078125 -75.125 C 26.359375 -78.425781 32.253906 -80.078125 38.765625 -80.078125 C 43.953125 -80.078125 48.691406 -78.992188 52.984375 -76.828125 C 57.273438 -74.660156 60.648438 -71.734375 63.109375 -68.046875 L 63.109375 -104.703125 L 87.296875 -104.703125 L 87.296875 0 L 63.109375 0 L 63.109375 -11.3125 C 60.835938 -7.539062 57.601562 -4.523438 53.40625 -2.265625 C 49.207031 -0.00390625 44.328125 1.125 38.765625 1.125 C 32.253906 1.125 26.359375 -0.546875 21.078125 -3.890625 C 15.796875 -7.234375 11.625 -11.992188 8.5625 -18.171875 C 5.5 -24.359375 3.96875 -31.503906 3.96875 -39.609375 Z M 63.109375 -39.46875 C 63.109375 -45.507812 61.429688 -50.273438 58.078125 -53.765625 C 54.734375 -57.253906 50.65625 -59 45.84375 -59 C 41.03125 -59 36.945312 -57.273438 33.59375 -53.828125 C 30.25 -50.390625 28.578125 -45.648438 28.578125 -39.609375 C 28.578125 -33.578125 30.25 -28.789062 33.59375 -25.25 C 36.945312 -21.71875 41.03125 -19.953125 45.84375 -19.953125 C 50.65625 -19.953125 54.734375 -21.695312 58.078125 -25.1875 C 61.429688 -28.675781 63.109375 -33.4375 63.109375 -39.46875 Z M 63.109375 -39.46875 "/></g></g></g></svg>