<svg width="68" height="68" viewBox="0 0 68 68" fill="none" xmlns="http://www.w3.org/2000/svg">
<path d="M25.5 62.3334C27.0648 62.3334 28.3333 61.0648 28.3333 59.5C28.3333 57.9352 27.0648 56.6667 25.5 56.6667C23.9352 56.6667 22.6667 57.9352 22.6667 59.5C22.6667 61.0648 23.9352 62.3334 25.5 62.3334Z" stroke="#212121" stroke-width="5.5" stroke-linecap="round" stroke-linejoin="round"/>
<path d="M56.6667 62.3334C58.2315 62.3334 59.5 61.0648 59.5 59.5C59.5 57.9352 58.2315 56.6667 56.6667 56.6667C55.1019 56.6667 53.8333 57.9352 53.8333 59.5C53.8333 61.0648 55.1019 62.3334 56.6667 62.3334Z" stroke="#212121" stroke-width="5.5" stroke-linecap="round" stroke-linejoin="round"/>
<path d="M2.83333 2.83331H14.1667L21.76 40.7716C22.0191 42.0761 22.7287 43.2479 23.7647 44.0818C24.8007 44.9158 26.097 45.3588 27.4267 45.3333H54.9667C56.2964 45.3588 57.5926 44.9158 58.6286 44.0818C59.6646 43.2479 60.3742 42.0761 60.6333 40.7716L65.1667 17H17" stroke="#212121" stroke-width="5.5" stroke-linecap="round" stroke-linejoin="round"/>
</svg>
